<mxfile host="app.diagrams.net" modified="2023-01-02T11:04:48.437Z" agent="5.0 (Macintosh; Intel Mac OS X 10_15_7) AppleWebKit/537.36 (KHTML, like Gecko) Chrome/108.0.0.0 Whale/3.18.154.8 Safari/537.36" version="20.7.4" etag="qmkrryfECAzrRKky_m1i" type="github">
  <diagram id="4rSwOs-G8_VbnUlj495g" name="페이지-1">
    <mxGraphModel dx="1434" dy="771" grid="1" gridSize="10" guides="1" tooltips="1" connect="1" arrows="1" fold="1" page="1" pageScale="1" pageWidth="827" pageHeight="1169" math="0" shadow="0">
      <root>
        <mxCell id="0" />
        <mxCell id="1" parent="0" />
        <mxCell id="VGw5-0nzdTvGc15JlLRn-1" value="" style="rounded=0;whiteSpace=wrap;html=1;" vertex="1" parent="1">
          <mxGeometry x="50" y="40" width="610" height="420" as="geometry" />
        </mxCell>
        <mxCell id="VGw5-0nzdTvGc15JlLRn-2" value="" style="rounded=0;whiteSpace=wrap;html=1;" vertex="1" parent="1">
          <mxGeometry x="65" y="100" width="580" height="200" as="geometry" />
        </mxCell>
        <mxCell id="VGw5-0nzdTvGc15JlLRn-3" value="" style="rounded=0;whiteSpace=wrap;html=1;" vertex="1" parent="1">
          <mxGeometry x="80" y="130" width="120" height="110" as="geometry" />
        </mxCell>
        <mxCell id="VGw5-0nzdTvGc15JlLRn-4" value="Dashboard" style="text;html=1;strokeColor=none;fillColor=none;align=center;verticalAlign=middle;whiteSpace=wrap;rounded=0;" vertex="1" parent="1">
          <mxGeometry x="65" y="50" width="105" height="30" as="geometry" />
        </mxCell>
        <mxCell id="VGw5-0nzdTvGc15JlLRn-5" value="Widget" style="text;html=1;strokeColor=none;fillColor=none;align=center;verticalAlign=middle;whiteSpace=wrap;rounded=0;" vertex="1" parent="1">
          <mxGeometry x="87.5" y="130" width="105" height="30" as="geometry" />
        </mxCell>
        <mxCell id="VGw5-0nzdTvGc15JlLRn-6" value="Row" style="text;html=1;strokeColor=none;fillColor=none;align=center;verticalAlign=middle;whiteSpace=wrap;rounded=0;" vertex="1" parent="1">
          <mxGeometry x="330" y="100" width="60" height="30" as="geometry" />
        </mxCell>
        <mxCell id="VGw5-0nzdTvGc15JlLRn-7" value="" style="rounded=0;whiteSpace=wrap;html=1;" vertex="1" parent="1">
          <mxGeometry x="210" y="130" width="120" height="110" as="geometry" />
        </mxCell>
        <mxCell id="VGw5-0nzdTvGc15JlLRn-8" value="Widget" style="text;html=1;strokeColor=none;fillColor=none;align=center;verticalAlign=middle;whiteSpace=wrap;rounded=0;" vertex="1" parent="1">
          <mxGeometry x="217.5" y="130" width="105" height="30" as="geometry" />
        </mxCell>
        <mxCell id="VGw5-0nzdTvGc15JlLRn-9" value="" style="rounded=0;whiteSpace=wrap;html=1;" vertex="1" parent="1">
          <mxGeometry x="340" y="130" width="120" height="110" as="geometry" />
        </mxCell>
        <mxCell id="VGw5-0nzdTvGc15JlLRn-10" value="Widget" style="text;html=1;strokeColor=none;fillColor=none;align=center;verticalAlign=middle;whiteSpace=wrap;rounded=0;" vertex="1" parent="1">
          <mxGeometry x="347.5" y="130" width="105" height="30" as="geometry" />
        </mxCell>
      </root>
    </mxGraphModel>
  </diagram>
</mxfile>
